<svg width="133" height="32" viewBox="0 0 133 32" fill="none" xmlns="http://www.w3.org/2000/svg">
<path fill-rule="evenodd" clip-rule="evenodd" d="M44.4503 5.19482C44.709 5.19482 44.9186 5.40449 44.9186 5.66312L44.8999 17.603L49.9606 11.7431C50.0496 11.6436 50.1768 11.5868 50.3102 11.587H53.0029C53.1819 11.5919 53.3424 11.6985 53.4164 11.8615C53.4905 12.0245 53.4651 12.2155 53.351 12.3535L47.7893 18.7113L53.721 25.6093C53.8325 25.7478 53.8559 25.9375 53.7815 26.099C53.707 26.2605 53.5475 26.3659 53.3698 26.371H50.6318C50.4992 26.3715 50.3728 26.3146 50.2853 26.2149L44.9015 20.0756L44.9186 25.909C44.9187 26.0323 44.869 26.1505 44.7809 26.2368C44.6928 26.3232 44.5737 26.3704 44.4503 26.3679H42.0355C41.7799 26.3679 41.5715 26.163 41.5672 25.9074V5.66312C41.5672 5.40449 41.7769 5.19482 42.0355 5.19482H44.4503ZM83.7635 7.99678C84.0129 7.99678 84.2168 8.19174 84.231 8.43756L84.2318 8.46508V11.598H87.7362C87.9856 11.598 88.1895 11.7929 88.2037 12.0387L88.2045 12.0662V13.9394C88.2045 14.1888 88.0095 14.3927 87.7637 14.4069L87.7362 14.4077H84.2318V21.2136C84.2318 22.9057 84.9983 23.6862 86.6435 23.6862C86.968 23.685 87.2908 23.6377 87.602 23.5457C87.7417 23.5059 87.892 23.5333 88.0088 23.6198C88.1172 23.7001 88.1853 23.823 88.1967 23.9564L88.1983 23.9874V25.9215C88.1963 26.109 88.0827 26.2773 87.9095 26.3492C87.1734 26.6224 86.3919 26.7522 85.607 26.7316C82.6956 26.7316 80.9499 24.9447 80.9153 21.9524L80.9147 21.8614V14.4155H79.1461C78.8968 14.4155 78.6929 14.2206 78.6786 13.9747L78.6779 13.9472V12.0741C78.6779 11.8247 78.8728 11.6208 79.1186 11.6066L79.1461 11.6058H80.9116V8.46508C80.9116 8.21859 81.1021 8.01599 81.3449 7.99801L81.3721 7.99678H83.7635ZM61.7834 11.2389C63.8599 11.2389 65.6556 12.0799 66.7259 13.5477L66.7707 13.6101L66.9409 13.8504V12.0678C66.9408 11.8213 67.1314 11.6187 67.3742 11.6007L67.4014 11.5995H69.7631C70.0125 11.5995 70.2164 11.7945 70.2306 12.0403L70.2314 12.0678V25.9043C70.2282 26.149 70.0375 26.3483 69.7964 26.3652L69.7694 26.3663H67.4014C67.1549 26.3622 66.9556 26.1683 66.9417 25.9253L66.9409 25.8981V23.9921L66.7707 24.2341C65.6687 25.795 63.8033 26.7316 61.7834 26.7316C57.7467 26.7316 54.5858 23.3302 54.5858 18.9861C54.5858 14.6419 57.7467 11.2389 61.7834 11.2389ZM129.285 13.5477C128.215 12.0799 126.419 11.2389 124.335 11.2389C120.3 11.2389 117.139 14.6419 117.139 18.9861C117.139 23.3302 120.3 26.7316 124.335 26.7316C126.364 26.7316 128.222 25.795 129.33 24.2341L129.499 23.9921V25.8981L129.499 25.9256C129.514 26.1714 129.717 26.3663 129.967 26.3663H132.335L132.362 26.3651C132.602 26.3475 132.792 26.1484 132.795 25.9043V12.0678L132.795 12.0403C132.78 11.7945 132.576 11.5995 132.327 11.5995H129.967L129.939 11.6003C129.693 11.6146 129.499 11.8184 129.499 12.0678V13.8504L129.33 13.6101L129.285 13.5477ZM93.9957 11.5995C94.2451 11.5995 94.449 11.7945 94.4632 12.0403L94.464 12.0678V19.8399C94.464 22.2298 95.7081 23.6549 97.792 23.6549C99.937 23.6549 101.335 22.0118 101.363 19.4601L101.364 19.3825V12.0678C101.364 11.8184 101.558 11.6146 101.804 11.6003L101.832 11.5995H104.261C104.51 11.5995 104.714 11.7945 104.728 12.0403L104.729 12.0678V25.9043C104.729 26.1537 104.534 26.3576 104.288 26.3718L104.261 26.3726H101.832C101.582 26.3726 101.379 26.1776 101.364 25.9318L101.364 25.9043V24.1623L101.19 24.4261C100.221 25.9137 98.6349 26.7316 96.7243 26.7316C93.2982 26.7316 91.1557 24.3954 91.1072 20.6258L91.1063 20.5111V12.0678C91.1063 11.8184 91.3013 11.6146 91.5471 11.6003L91.5746 11.5995H93.9957ZM116.343 11.7375C116.33 11.5014 116.141 11.3103 115.902 11.2967L115.698 11.2971C113.792 11.3227 112.11 12.4188 111.396 14.1064L111.215 14.5342V12.0678L111.214 12.0403C111.2 11.7945 110.996 11.5995 110.747 11.5995H108.388L108.36 11.6003C108.115 11.6146 107.92 11.8184 107.92 12.0678V25.9043L107.92 25.9318C107.935 26.1776 108.138 26.3726 108.388 26.3726H110.786L110.813 26.3718C111.059 26.3576 111.254 26.1537 111.254 25.9043V19.8711L111.254 19.7769C111.284 16.679 112.953 14.6824 115.523 14.6824L115.591 14.6825C115.681 14.6829 115.769 14.6846 115.852 14.6934C115.979 14.6997 116.103 14.6543 116.196 14.5675C116.289 14.4806 116.342 14.3599 116.344 14.2329V11.765L116.343 11.7375ZM76.5674 5.66156C76.5674 5.40638 76.3605 5.19951 76.1054 5.19951H73.6781C73.4229 5.19951 73.216 5.40638 73.216 5.66156V25.9043C73.216 26.1595 73.4229 26.3663 73.6781 26.3663H76.1054C76.3605 26.3663 76.5674 26.1595 76.5674 25.9043V5.66156ZM62.5155 14.2579C59.9477 14.2579 57.9372 16.3371 57.9372 18.9892C57.9372 21.6148 59.9077 23.6773 62.4387 23.7183L62.5155 23.7189V23.7158C65.0818 23.7158 67.0923 21.6413 67.0923 18.9892C67.0923 16.3371 65.0833 14.2579 62.5155 14.2579ZM120.503 18.9892C120.503 16.3371 122.513 14.2579 125.079 14.2579C127.646 14.2579 129.658 16.3371 129.658 18.9892C129.658 21.6413 127.647 23.7158 125.079 23.7158V23.7189L125.003 23.7183C122.473 23.6773 120.503 21.6148 120.503 18.9892Z" fill="#282828"/>
<path fill-rule="evenodd" clip-rule="evenodd" d="M15.9657 9.13483C15.2414 9.13483 14.6529 8.40741 14.6529 7.68312V1.45171C14.6529 0.725854 15.2414 0 15.9657 0C16.69 0 17.28 0.725854 17.28 1.45171V7.67532C17.28 8.39961 16.6915 9.13483 15.9657 9.13483Z" fill="#FA374B"/>
<path fill-rule="evenodd" clip-rule="evenodd" d="M11.1297 11.1297C10.6177 11.6433 9.68741 11.5449 9.17541 11.0314L4.77346 6.63721C4.26146 6.12365 4.16311 5.19487 4.67668 4.68131C5.19024 4.16775 6.11902 4.26609 6.63102 4.77965L11.033 9.18004C11.545 9.68736 11.6433 10.6161 11.1297 11.1297Z" fill="#FFCD00"/>
<path fill-rule="evenodd" clip-rule="evenodd" d="M9.12702 15.9656C9.12702 16.6915 8.40117 17.28 7.67532 17.28H1.45171C0.725854 17.28 0 16.6915 0 15.9656C0 15.2398 0.725854 14.6528 1.45171 14.6528H7.67532C8.40117 14.6528 9.12702 15.2398 9.12702 15.9656Z" fill="#B4DC00"/>
<path fill-rule="evenodd" clip-rule="evenodd" d="M11.1298 20.8018C11.6433 21.3153 11.545 22.2441 11.033 22.7577L6.63102 27.1581C6.11902 27.6716 5.18868 27.77 4.67668 27.2564C4.16468 26.7428 4.26146 25.8141 4.77346 25.3005L9.17541 20.9001C9.68741 20.3865 10.6178 20.2898 11.1298 20.8018Z" fill="#41BEFF"/>
<path fill-rule="evenodd" clip-rule="evenodd" d="M15.9657 22.8057C16.6915 22.8057 17.28 23.5315 17.28 24.2574V30.481C17.28 31.2068 16.6915 31.9327 15.9657 31.9327C15.2398 31.9327 14.6529 31.2068 14.6529 30.481V24.2574C14.6529 23.5315 15.2414 22.8057 15.9657 22.8057Z" fill="#006EFA"/>
<path fill-rule="evenodd" clip-rule="evenodd" d="M20.8016 20.8018C21.3151 20.2898 22.2439 20.3865 22.7575 20.9001L27.1578 25.3005C27.6714 25.8141 27.7697 26.7428 27.2562 27.2564C26.7426 27.77 25.8138 27.6716 25.3003 27.1581L20.8999 22.7577C20.3863 22.2472 20.2896 21.3106 20.8016 20.8018Z" fill="#FFAA00"/>
<path fill-rule="evenodd" clip-rule="evenodd" d="M22.8059 15.9656C22.8059 15.2398 23.5317 14.6528 24.2576 14.6528H30.4812C31.207 14.6528 31.9329 15.2398 31.9329 15.9656C31.9329 16.6915 31.207 17.28 30.4812 17.28H24.2513C23.5317 17.28 22.8059 16.6915 22.8059 15.9656Z" fill="#00A078"/>
<path fill-rule="evenodd" clip-rule="evenodd" d="M20.8016 11.1299C20.2896 10.6164 20.3863 9.68759 20.8999 9.17403L25.3003 4.77364C25.8138 4.26008 26.7426 4.1633 27.2562 4.6753C27.7697 5.1873 27.6714 6.11764 27.1578 6.6312L22.7575 11.0316C22.2439 11.5452 21.3151 11.6435 20.8016 11.1299Z" fill="#3CD2AF"/>
<circle cx="15.9657" cy="15.9655" r="2.112" fill="#282828"/>
</svg>
